<?xml version="1.0" encoding="iso-8859-1"?>
<!-- Generator: Adobe Illustrator 19.0.0, SVG Export Plug-In . SVG Version: 6.00 Build 0)  -->
<svg version="1.1" id="Layer_1" xmlns="http://www.w3.org/2000/svg" xmlns:xlink="http://www.w3.org/1999/xlink" x="0px" y="0px"
	 viewBox="0 0 512 512" style="enable-background:new 0 0 512 512;" xml:space="preserve">
<g>
	<g>
		<path d="M373.029,43.886c-49.137,0-88.503,25.234-117.029,63.993c-28.709-38.758-67.891-63.993-117.029-63.993
			C62.22,43.886,0,106.105,0,182.857c0,90.699,67.291,141.41,134.583,194.073C194.493,423.816,256,468.114,256,468.114
			s61.509-44.298,121.417-91.184C444.709,324.267,512,273.556,512,182.857C512,106.105,449.78,43.886,373.029,43.886z
			 M437.359,264.676c-21.219,26.26-51.137,49.655-82.811,74.426l-4.178,3.268c-35.101,27.47-71.079,54.275-94.369,71.411
			c-23.292-17.137-59.269-43.941-94.37-71.411l-4.179-3.268c-31.674-24.771-61.592-48.166-82.811-74.426
			c-21.27-26.324-30.755-51.558-30.755-81.819c0-52.43,42.655-95.086,95.086-95.086c31.533,0,59.042,15.553,81.763,46.229
			l35.378,47.762l35.233-47.872c22.524-30.603,50.005-46.12,81.683-46.12c52.43,0,95.086,42.655,95.086,95.086
			C468.114,213.118,458.629,238.352,437.359,264.676z"/>
	</g>
</g>
<g>
</g>
<g>
</g>
<g>
</g>
<g>
</g>
<g>
</g>
<g>
</g>
<g>
</g>
<g>
</g>
<g>
</g>
<g>
</g>
<g>
</g>
<g>
</g>
<g>
</g>
<g>
</g>
<g>
</g>
</svg>
